<svg xmlns="http://www.w3.org/2000/svg" width="512" height="512" viewBox="0 0 512 512">
  <defs>
    <linearGradient id="bg" x1="0" y1="0" x2="0" y2="1">
      <stop offset="0%" stop-color="#89b4fa"/>
      <stop offset="100%" stop-color="#6c8fd8"/>
    </linearGradient>
  </defs>
  <!-- Rounded rectangle background -->
  <rect x="32" y="32" width="448" height="448" rx="96" ry="96" fill="url(#bg)"/>
  <!-- Document shape -->
  <rect x="96" y="120" width="320" height="280" rx="24" ry="24" fill="#ffffff"/>
  <!-- Document fold corner -->
  <path d="M352 120 L416 184" stroke="#e0e0e0" stroke-width="2" fill="none"/>
  <polygon points="352,120 416,184 352,184" fill="#f5f5f5"/>
  <!-- Lines representing markdown content -->
  <rect x="140" y="180" width="60" height="8" rx="4" fill="#89b4fa"/>
  <rect x="210" y="180" width="120" height="8" rx="4" fill="#1e1e2e"/>
  <rect x="140" y="210" width="180" height="6" rx="3" fill="#888"/>
  <rect x="140" y="250" width="160" height="6" rx="3" fill="#555"/>
  <rect x="140" y="270" width="200" height="6" rx="3" fill="#888"/>
  <rect x="140" y="290" width="140" height="6" rx="3" fill="#555"/>
  <rect x="140" y="330" width="100" height="6" rx="3" fill="#888"/>
  <rect x="140" y="350" width="180" height="6" rx="3" fill="#555"/>
  <rect x="140" y="370" width="150" height="6" rx="3" fill="#888"/>
</svg>
